HIERARCHY
ROOT Hips
{
 OFFSET 0.000000 0.000000 0.000000
 CHANNELS 6 Xposition Yposition Zposition Yrotation Xrotation Zrotation
 JOINT Chest
 {
  OFFSET 0.000000 9.581000 -0.001100
  CHANNELS 3 Yrotation Xrotation Zrotation
  JOINT Chest2
  {
   OFFSET 0.000000 9.561100 0.002200
   CHANNELS 3 Yrotation Xrotation Zrotation
   JOINT Chest3
   {
    OFFSET 0.000000 9.521100 0.000000
    CHANNELS 3 Yrotation Xrotation Zrotation
    JOINT Chest4
    {
     OFFSET 0.000000 9.511400 0.000000
     CHANNELS 3 Yrotation Xrotation Zrotation
     JOINT Neck
     {
      OFFSET 0.000000 14.375100 0.000000
      CHANNELS 3 Yrotation Xrotation Zrotation
      JOINT Head
      {
       OFFSET 0.000000 8.901200 0.004600
       CHANNELS 3 Yrotation Xrotation Zrotation
       End Site
       {
        OFFSET 0.000000 16.962200 0.002400
       }
      }
     }
     JOINT RightCollar
     {
      OFFSET -2.920100 9.518800 0.000000
      CHANNELS 3 Yrotation Xrotation Zrotation
      JOINT RightShoulder
      {
       OFFSET -13.664500 0.000000 0.000000
       CHANNELS 3 Yrotation Xrotation Zrotation
       JOINT RightElbow
       {
        OFFSET 0.000000 -29.999200 0.000000
        CHANNELS 3 Yrotation Xrotation Zrotation
        JOINT RightWrist
        {
         OFFSET 0.000000 -24.253600 0.000000
         CHANNELS 3 Yrotation Xrotation Zrotation
         End Site
         {
          OFFSET 0.000000 -17.918900 0.000000
         }
        }
       }
      }
     }
     JOINT LeftCollar
     {
      OFFSET 2.920100 9.518800 0.000000
      CHANNELS 3 Yrotation Xrotation Zrotation
      JOINT LeftShoulder
      {
       OFFSET 13.664500 0.000000 0.000000
       CHANNELS 3 Yrotation Xrotation Zrotation
       JOINT LeftElbow
       {
        OFFSET 0.000000 -29.999200 0.000000
        CHANNELS 3 Yrotation Xrotation Zrotation
        JOINT LeftWrist
        {
         OFFSET 0.000000 -24.253600 0.000000
         CHANNELS 3 Yrotation Xrotation Zrotation
         End Site
         {
          OFFSET 0.000000 -17.918900 0.000000
         }
        }
       }
      }
     }
    }
   }
  }
 }
 JOINT RightHip
 {
  OFFSET -7.797300 0.005300 0.000500
  CHANNELS 3 Yrotation Xrotation Zrotation
  JOINT RightKnee
  {
   OFFSET 0.000000 -40.663400 -0.000500
   CHANNELS 3 Yrotation Xrotation Zrotation
   JOINT RightAnkle
   {
    OFFSET 0.000000 -39.523700 -0.000900
    CHANNELS 3 Yrotation Xrotation Zrotation
    JOINT RightToe
    {
     OFFSET 0.000000 -6.418000 14.485300
     CHANNELS 3 Yrotation Xrotation Zrotation
     End Site
     {
      OFFSET 0.000000 -1.465200 6.326400
     }
    }
   }
  }
 }
 JOINT LeftHip
 {
  OFFSET 7.797300 0.005300 0.000500
  CHANNELS 3 Yrotation Xrotation Zrotation
  JOINT LeftKnee
  {
   OFFSET 0.000000 -40.663400 -0.000500
   CHANNELS 3 Yrotation Xrotation Zrotation
   JOINT LeftAnkle
   {
    OFFSET 0.000000 -39.523700 -0.000900
    CHANNELS 3 Yrotation Xrotation Zrotation
    JOINT LeftToe
    {
     OFFSET 0.000000 -6.418000 14.485300
     CHANNELS 3 Yrotation Xrotation Zrotation
     End Site
     {
      OFFSET 0.000000 -1.465200 6.326400
     }
    }
   }
  }
 }
}
MOTION
Frames: 5
Frame Time: 0.008333
-23.489018 126.368686 55.936954 -173.794076 -26.994029 -2.223371 -1.196671 18.887113 0.406503 -0.144490 2.204174 0.070030 -0.231997 3.688814 0.122139 -1.042455 16.342471 0.387057 0.789246 17.965210 -0.361820 0.873746 -6.918269 -0.559438 -15.286849 -0.382436 -8.251611 -15.326058 4.012064 1.389872 -65.306074 -28.188036 12.079427 -16.255105 -20.727290 -45.405914 -1.230924 -1.817210 7.633424 16.842010 -2.802337 -0.477761 39.727085 -21.867320 -1.455585 12.845702 -25.969191 42.803633 -6.524397 -61.369602 2.010668 -40.485994 67.946025 -38.756754 31.725094 41.671160 22.031056 -0.015769 -0.005093 -0.006986 -11.655221 -49.982801 -5.013732 17.199844 70.952445 8.014047 -0.228430 8.205453 6.386391 0.004936 0.009164 0.002188
-23.487152 126.366427 55.935662 -173.812435 -26.954807 -2.207501 -1.180079 18.918641 0.418566 -0.143672 2.219547 0.071973 -0.236132 3.636771 0.109648 -1.026155 16.421121 0.394423 0.783442 17.896526 -0.366736 0.886754 -6.930839 -0.564645 -15.238469 -0.485651 -8.182340 -15.236418 4.015095 1.409727 -65.209199 -28.168205 12.044170 -16.250059 -20.687752 -45.439954 -1.255965 -1.841048 7.616867 16.765573 -2.832989 -0.455480 39.535732 -21.792356 -1.407397 12.842146 -25.950061 42.751277 -6.513577 -61.420378 1.991050 -40.445590 67.889813 -38.745583 31.962019 41.781055 22.270729 -0.014695 -0.019504 -0.006509 -11.642234 -50.011227 -4.999981 17.141471 70.952314 7.934469 -0.217849 8.197601 6.404796 0.001482 0.009808 0.000657
-23.485059 126.365022 55.932920 -173.822678 -26.926432 -2.196369 -1.174356 18.899122 0.414626 -0.144800 2.250555 0.078786 -0.235257 3.607493 0.102624 -1.020509 16.461779 0.398495 0.789604 17.887483 -0.367029 0.895047 -6.936905 -0.564485 -15.190155 -0.516521 -8.130045 -15.157551 3.999954 1.433508 -65.118334 -28.166028 12.016896 -16.234843 -20.684839 -45.466614 -1.268396 -1.850281 7.603796 16.698799 -2.820836 -0.419649 39.327695 -21.729361 -1.355390 12.840937 -25.923733 42.691523 -6.503375 -61.459288 1.966334 -40.465730 67.852217 -38.781203 32.160823 41.865475 22.487317 -0.007377 -0.020902 -0.003268 -11.634988 -50.035118 -4.996544 17.127493 70.951427 7.917217 -0.219798 8.204052 6.399059 0.000649 0.007777 0.000288
-23.484391 126.361757 55.934070 -173.851493 -26.875206 -2.164640 -1.156982 18.885665 0.405926 -0.145840 2.231437 0.073349 -0.232828 3.632499 0.107109 -1.018255 16.465797 0.397386 0.795292 17.878683 -0.369111 0.901010 -6.945211 -0.565735 -15.152015 -0.552924 -8.078849 -15.082835 3.986220 1.445634 -65.033933 -28.174115 11.997769 -16.218342 -20.716019 -45.485807 -1.284906 -1.862141 7.587175 16.652364 -2.805013 -0.382177 39.113023 -21.684509 -1.301103 12.842513 -25.898331 42.618838 -6.434837 -61.522125 1.894443 -40.534654 67.805052 -38.851447 32.400290 41.938859 22.735186 -0.005368 -0.017410 -0.002378 -11.614860 -50.081393 -4.990101 17.086306 70.949304 7.858150 -0.213263 8.202691 6.407904 0.000607 0.007462 0.000269
-23.480931 126.361159 55.930054 -173.864345 -26.857629 -2.159260 -1.152245 18.904012 0.413325 -0.142472 2.214413 0.069014 -0.238070 3.692170 0.120505 -1.012830 16.410257 0.383962 0.803799 17.892960 -0.368666 0.908525 -6.952728 -0.568943 -15.114739 -0.576783 -8.034264 -15.013152 3.982425 1.443807 -64.953909 -28.190216 11.988113 -16.205065 -20.763665 -45.497272 -1.294065 -1.868706 7.578154 16.634054 -2.795816 -0.363764 38.870608 -21.646033 -1.219446 12.842755 -25.885137 42.536460 -6.345999 -61.536359 1.820256 -40.683825 67.735114 -38.973148 32.665996 41.999799 22.987053 0.004749 -0.013967 0.002104 -11.623892 -50.096186 -4.963684 17.068363 70.956123 7.824053 -0.210651 8.198744 6.410293 -0.000214 0.004719 -0.000095
